/* XPM */
static char *_6ae4c816ce54093ad2320ea1dad35cerPdD1lYlq9SiiEun[] = {
/* columns rows colors chars-per-pixel */
"100 100 23 1 ",
"  c None",
". c #002236",
"X c #015C3D",
"o c #003D64",
"O c #017A44",
"+ c #004064",
"@ c #5C4766",
"# c #00904A",
"$ c #2FAB59",
"% c #064B80",
"& c #01778D",
"* c #0054A6",
"= c #496492",
"- c #035FC4",
"; c #006FC1",
": c #00A99D",
"> c #6082BE",
", c #0088D3",
"< c #00AEEF",
"1 c #7DAAF4",
"2 c #43CAF9",
"3 c #84CBB0",
"4 c #FAFFFF",
/* pixels */
"                                                                                                    ",
"                                                                                                    ",
"                                                                                                    ",
"                                                                                                    ",
"                                                                                                    ",
"                                                                                                    ",
"                                                                                                    ",
"                                                                                                    ",
"                                                                                                    ",
"                                                                                                    ",
"                                                                                                    ",
"                                                                                                    ",
"                                                                                                    ",
"                                                                                                    ",
"                                                                                                    ",
"                                                                                                    ",
"                                                                                                    ",
"                                                                                                    ",
"                                                                                                    ",
"                                                                                                    ",
"                                                                                                    ",
"                                                                                                    ",
"                                                                                                    ",
"                                                                                                    ",
"                                                                                                    ",
"                                                                                                    ",
"                                                                                                    ",
"                                                                                                    ",
"                                                                                                    ",
"                                                                        oo                          ",
"                                                                        o<o                         ",
"                                                                         o,o      o                 ",
"                                                                         &&o,o    ooo               ",
"                                                                         &:&o,oo  oooo              ",
"                                                                         &::&o;2ooooooo             ",
"                                                                        &::::&oo22ooooo             ",
"                                                                        &::::o&&o;2ooooo            ",
"                                                                       &3333:o*oo&o;;,<222oo        ",
"                                                                       &3333:&o**o:oooo<2222        ",
"                                                                     oo::333o&&oo*o****o,,22        ",
"                                                                     o*ooo::oo:::o*ooo**o,,;o       ",
"                                                                      o***ooo*oo::o******o;;,o      ",
"                                                                      &&&&oo*:..**o*-*...+*o,22o    ",
"                                                                      &:&&&&o:::.**----44.+*,,22o   ",
"                                                            ooooo   oo33::&&oo:oo.**---oo..+o,222   ",
"                                                          oo$$#ooooo*&::3::o+oo*+%****-%++++*o,22   ",
"                                                         o#$$oo#OOO*o:::3:&o+o*o..%%***%++%%+*o,<o  ",
"                                                    o$o######ooOOOo**oooooo++..o::.++%%++**%%%+o;o  ",
"                                                   o$#o##ooOoO#ooo...*****++++++o:+......++*%%%o;o  ",
"                                                  o$oo#oo$$oOOo#$OO.....+++++++%+oo;;;.  ..++*%+oo  ",
"                                                  oo#oo$$$$$oO##$#OXXoX..+++++%%++;;;o     ..ooooo  ",
"                                                 o##o#$$$$##oO#$$#OXXoX..++++%%+++;;o           o   ",
"                                               oo##O$$$$##oooO$$#OOXoXXoX.+%%%++o;o                 ",
"                                             11##oOoo####oOOOooOOOOoXXooX.%%%+++o,o                 ",
"                                            11>$o#oOOooooOooO#OooOOXXoXXo.%%%++o,,                  ",
"                   >111>    oooooo          11#o#o#ooOoOOo##oooOOooXoXXXo+++%+o,,<                  ",
"       1111>>    1>     >>1 o22222oooo>>=@@o11O#o#o##OoOO##$$#OoXXXoOXXo%%-+++o,,< >>>              ",
"               @@@@@@@@@@@@@@=>>11111@@@@@@@=>1oOo#$##o#o$$###XoXoXOXo++%%**-o,,2o>    >            ",
"               @@@@@@@@@@@@@@@@@@@@@@@@1>@@@@=>OoOO#$#o#o$##OOXoXXoOo++++%%*-o,<2o>1   >=           ",
"                @@@@@@@@@@@@@@@@@@@@@@@@11@@@@=>>1OO##o#oOOOOXXoXoOXo++%++%**-o<o@>>   1=           ",
"               @@@@@@@@@@@@@@@@@@@@@@@@@@@@@@@@@======>>>OOOXXoXoOOo+++%*+%**-o<o@>>   1=           ",
"          @@@@@@@@@@@@@@@@@@@@@@@@@@@@@@@@@>>1>@@@@@@@@o=>1>>111>>111++%**%**-->>>>    >=           ",
"         @@@@@@@@@@@@@@@@@@@@@@@@@@@@@@@@@@@@@@@@@@@@@@@@@@@@@@@@@@@@@@@@@@@@@@@@@                  ",
"                                          @@@@@@@@==>@@@@@@@@@@@@@@@@@@@@@@@@@@@@@                  ",
"      @@@@@@@@@@@@@@@@@@@@@@@@@@@@@@@@@@@@@@@@@@@@@@@>1>@@>>111@>>@@@@@@@@@@@@@@@@@                 ",
"     @@@@@@@@@@@@@@@@@@@@@@@@@@@@@@@@@@@@@@@@@@@@@@@@@@@@@@@@@@@@@@11@@@@@@@@@@@@>@                 ",
"                                                     @@@@@@@@@@@@@@@==>>>1111111>@@                 ",
"   @@@@@@@@@@@@@@@@@@@@@@@@@@@@@@@@@@@@@@@@@@@@@@@@@@@@@@@@@@@@@@@@@@@@@@@@@@@@                     ",
"                                                    @@@@@@@@@@@@@@@@@@@@@@@@@@@@@@@@                ",
"                                    @         @@@@@@@   @@@       @@@                               ",
"@@@@@@@@                                @@@@@@@@@@@@@@@@@@@@@@@@@@@@@@@@@@@@@@@@@@@@@@@@            ",
"                                                                                                    ",
"                                                            @@@@@@@@@@@@@@@@@@@@@@@@@@@@@@@         ",
"                                                           @@@@@@@@                                 ",
"                                                                                                    ",
"                                                                        @@@@@ @@@@@@@@@@@           ",
"                                                                                                    ",
"                                                                                                    ",
"                                                                                                    ",
"                                                                                                    ",
"                                                                                                    ",
"                                                                                                    ",
"                                                                                                    ",
"                                                                                                    ",
"                                                                                                    ",
"                                                                                                    ",
"                                                                                                    ",
"                                                                                                    ",
"                                                                                                    ",
"                                                                                                    ",
"                                                                                                    ",
"                                                                                                    ",
"                                                                                                    ",
"                                                                                                    ",
"                                                                                                    ",
"                                                                                                    ",
"                                                                                                    ",
"                                                                                                    ",
"                                                                                                    ",
"                                                                                                    "
};
