/* XPM */
static char *a383f94405c449968975a90edbdfabbftX4yzyxArValf6TI[] = {
/* columns rows colors chars-per-pixel */
"100 100 20 1 ",
"  c None",
". c #0B5C3D",
"X c #002E4C",
"o c #017A44",
"O c #004064",
"+ c #5C4766",
"@ c #00904A",
"# c #3AA04C",
"$ c #064B80",
"% c #01778D",
"& c #0054A6",
"* c #496492",
"= c #035FC4",
"- c #00A99D",
"; c #6082BE",
": c #0088D3",
"> c #00AEEF",
", c #7DAAF4",
"< c #43CAF9",
"1 c #84CBB0",
/* pixels */
"                                                                                                    ",
"                                                                                                    ",
"                                                                                                    ",
"                                                                                                    ",
"                                                                                                    ",
"                                                                                                    ",
"                                                                                                    ",
"                                                                                                    ",
"                                                                                                    ",
"                                                                                                    ",
"                                                                                                    ",
"                                                                                                    ",
"                                                                                                    ",
"                                                                                                    ",
"                                                                                                    ",
"                                                                                                    ",
"                                                                                                    ",
"                                                                                                    ",
"                                                                                                    ",
"                                                                                                    ",
"                                                                                                    ",
"                                                                                                    ",
"                                                                                                    ",
"                                                                                                    ",
"                                                                                                    ",
"                                                                                                    ",
"                                                                                                    ",
"                                                  XX                                                ",
"                                              XOOX::OOX                                             ",
"                                             XOOOX::OO&X                                            ",
"                                             XOOOX>:OO&X                                            ",
"                                         XXXXOOOOX>:OOO$XXXX                                        ",
"                                          &&&OOOOX>:OOO$X&X                                         ",
"                                          %1-$OOOX>:OOO$-%                                          ",
"                                          %1X$OOOX>:OOO$X%                                          ",
"                                          -X&$$OOX<>OO$&&-%                                         ",
"                                          X&XX$OOX<>OO$XXX%                                         ",
"                                          &X-X$OOX<<O$$X-X&X                                        ",
"                                          1--X&$$X<<O$&X-1X                                         ",
"                                          -1-X&$$X:<O$&X--%                                         ",
"                                          %1-X=&$X::O&&X-%                                          ",
"                                          %1X&=&&XX:O$=&X%                                          ",
"                                          %-X&=&&%-1O$===                                           ",
"                                           X&====X%1O$===                                           ",
"                                           X&====X%1O$===                                           ",
"                                           X&=&$==X-O$&&=                                           ",
"                                           X&&&$X==XOO&&&                                           ",
"                                          X&$$$$$XX=OO$$&X                                          ",
"                                          X$$$$O$%-XOO$$$X                                          ",
"                                          X$OOOOO%-1OOOOOX                                          ",
"                                        XX$OOOOO=X-1OOOOO$XXX                                       ",
"                                       X==OOOOOO==X1OOOOO$$$=X                                      ",
"                                      X=$$OOOXXXX==XXXXXOOO$$=                                      ",
"                                     X=$OOXXoXXXoX=XXXXXoXXOO$X                                     ",
"                                     =$$OXXoXooXoX&XXoooXXXXO$=X                                    ",
"                                   ; =$OX.ooXo@oXX&XoX@oXoX.XO&X                                    ",
"                                  ;  &$X@XooXXXX##X&XoXXXo.X@X$X                                    ",
"                                 ,** &X@XXXXo@oX####@XoXXXXXX@$X                                    ",
"                                ,*   XoX.oXo@@X######XX@@XXo.XXX;                                   ",
"                                *    @oX.XoXX@o@####@Xo@XooX.X@X;                                   ",
"                                     ooX.Xo#@Xo@####@XoX@ooX.XoX;*                                  ",
"                               ,     oX..Xo#@XoX####XooX@ooX,,oX;*                                  ",
"                               ,    XoX.Xoo#@XoX@#@@Xoo@Xooo,;oX ,*                                 ",
"                               *    XoX,XoXo@@XXoXXXXXX@@X@o;;oo; ;                                 ",
"                               *   ,XX,,,+ooXX@oooXoo@@XXoX,;**,; ;                                 ",
"                               *   ,,o,,;,oXo@X@ooXo@XX@oo,*++*** ;*                                ",
"                               *   ;,,,*;;;,,X@X@@X@X@@XX,*++++++  *                                ",
"                               ;   ;;**+++;;;;,@X@,,,,,**++++++++  *                                ",
"                                    ;*+++++++++******+**+++++++++  *                                ",
"                                    *++++++++++++++++++++++++++++  *                                ",
"                                    +++++++++++++++++++++++++++++;*                                 ",
"                                    +++++++++++++++++++++++++++;***                                 ",
"                                    +++;+++++++++++++++++++++++++                                   ",
"                                ;   ++++;++++++++++++++++++++++++                                   ",
"                                ;   +++++,+++++++++++;;;++                                          ",
"                                 ;  +     ;;,  ++,,,;;+++++++++++                                   ",
"                                 ,,  +++++*****;,,;;++++++++++++                                    ",
"                                  ;,              ++                                                ",
"                                   ;,+++++++++++++X++++++++                                         ",
"                                    ; +++++++++++;XX+++                                             ",
"                                     ,           ;X<O+++++++++                                      ",
"                                      ,;+++++++++;X>X       ++                                      ",
"                                       +;++++++++;X>:X   +++++                                      ",
"                                         ;       ;;::X++++++++                                      ",
"                                        ++;+++++++;X:X*+++++++                                      ",
"                                        ++++++++++;&X;*+++++++                                      ",
"                                           ;      ;;X**                                             ",
"                                          ++;++++++;**                                              ",
"                                              *    +**++++++++                                      ",
"                                                                                                    ",
"                                            +++*++++++++++++++                                      ",
"                                               **                                                   ",
"                                               +*+                                                  ",
"                                                 *   +                                              ",
"                                                ;*       +++++                                      ",
"                                                ;*                                                  ",
"                                                ;*                                                  ",
"                                               **                                                   ",
"                                                                                                    ",
"                                                                                                    "
};
