/* XPM */
static char *e0c1dab833dd4a1f9067a845ad0214f8iBx3WoQhaWTtxfLe[] = {
/* columns rows colors chars-per-pixel */
"100 100 22 1 ",
"  c None",
". c #002236",
"X c #015C3D",
"o c #003D64",
"O c #017A44",
"+ c #004064",
"@ c #5C4766",
"# c #00904A",
"$ c #2FAB59",
"% c #064B80",
"& c #01778D",
"* c #0054A6",
"= c #496492",
"- c #035FC4",
"; c #006FC1",
": c #00A99D",
"> c #6082BE",
", c #0088D3",
"< c #00AEEF",
"1 c #7DAAF4",
"2 c #43CAF9",
"3 c #FAFFFF",
/* pixels */
"                                                                                                    ",
"                                                                                                    ",
"                                                                                                    ",
"                                                 1                                                  ",
"                                                 11                                                 ",
"                                                  1                                                 ",
"                                                  1                                                 ",
"                                                  >                                                 ",
"                                                  1                                                 ",
"                                                  1                                                 ",
"                                                  1                                                 ",
"                                                  1                                                 ",
"                                                 1                                                  ",
"                                                1                                                   ",
"                                               >1                                                   ",
"                                               1                                                    ",
"                                            @    @@@@@@@@                                           ",
"                                              =   @@@@@@@                                           ",
"                                           @@=@  1>                                                 ",
"                                           @@@@@1>>>@@@@.                                           ",
"                                             @@>1<;>@@@                                             ",
"                                           @@@@11<;>@@@@.                                           ",
"                                          @@@@@1><,>@@@@@                                           ",
"                                          @@@@@@><,>@@                                              ",
"                                         @@@@@@@><,=@@@@@                                           ",
"                                         @@@@@@@><,@@@@@@                                           ",
"                                         @@@@@@@@==@@@@@@                                           ",
"                                         @@@@@@@@@>>@@@@@                                           ",
"                                        @@@@@@1>>#&>>>@@@@@      =                                  ",
"                                        @@@@@1>o#.&oo>>@@@@@      =                                 ",
"                                        @@@=1>$#.#&o#o>>>@@@@     =                                 ",
"                                       @@@=1>ooo##&&o#o>>@@@@@    =                                 ",
"                                      @@@@=>###o$$&&$o#oo>@@@@    =                                 ",
"                                     @@@>=o###o$$$&&$oo##1>>@@@   =                                 ",
"                                     @@@>=#ooOO$$$&&$oO#o#1>@@@@   =                                ",
"                                     @@==>###oO#$$&&$oOo##1>=@@@   =                                ",
"                                     @@==o$##oOo$&2&oOOo#$$1>@@@   =                                ",
"                                    @@@>1O$$#oOo#&2&oOOOoOXX>=@@   =                                ",
"                                    @@>=oXoXOOooO&22oooOO.XX>=@@@  =                                ",
"                                    @@=>.XXX..XXX&22XXO..X.X>=@@@  =                                ",
"                                    @@=>X......XX&22X.......>=@@@  >=                               ",
"                                    @@=>XXo***..X&22.X.**.XX>=@@@  >=                               ",
"                                    @@>>XoXoo.*..222.*o::oXo>1@@@  1                                ",
"                                    @@>XoXoo::o+.222++o::oXX@1@@@  1                                ",
"                                    @@>XoXXo::o+.222*+o::XoX@1@@@  1                                ",
"                                    @@>XoXo+oo+*.222**+ooooX@1@@@  1                                ",
"                                    @>1oXoo+o**.2222o***ooXoX1@@@  1                                ",
"                                    >OoXXo:o*--.2222o----::oXX1>@  >                                ",
"                                   >>OoXXooo*--o,<<2o----oooXXO>>                                   ",
"                                   >oOOooo+.--%o,<<,o%%%*+*oooOX>                                   ",
"                                   >oOOOOoo.%%%o,,,,.%%%+oooOOXX>=                                  ",
"                                   >>XOOOoXo++.+o,,,++.++XXoOOXo==                                  ",
"                                   >>XXOoXXoo+3+o;;;+.3+.XXXoXXo==                                  ",
"                                    =oXoXXoo.+..o;;;.o.*.oXXXoo==                                   ",
"                                     >oooo+..**+o;;;++**.+ooooo>                                    ",
"                                     =o++++.+.*+o,,,++*..+++++o>                                    ",
"                                  >  =o%+++++.*+o,<,+**.++++++o>  =                                 ",
"                                  >  =o%+++++..+o<22+*..++++++o> =>                                 ",
"                                  1  11o%+++..;+.222+..o+++++%o> >                                  ",
"                                   > 11o%++++o;+.,,,+..++++++%o> >                                  ",
"                                   > >1o%++++.;*+o,o+.o+++++%%>  1                                  ",
"                                   1 >>1o%+++.;*+o,.*.o+++++%%>  1                                  ",
"                                   1  >>1%++++=.++o.@@==++1>>=                                      ",
"                                   1    =>===@@@@@@@@@@==>>>@o                                      ",
"                                   1     @==@@@@@@@@@@@@=@@@@o   >                                  ",
"                                   1>    @@@@@@@@@@@@@@@@@@@@    >                                  ",
"                                    >    @@@@@      @@@@@@@@@   >                                   ",
"                                    =>  @@@@@@@@@@@@@@@@@@@@@  ==                                   ",
"                                     =>                        =                                    ",
"                                     =>>@@@@@@@       @@@@@@@@==                                    ",
"                                      =>>                     =>                                    ",
"                                      @@@@    @        @@@@@>==                                     ",
"                                                      @@@1==@@@                                     ",
"                                     @@@       =>111 1111=@@@@                                      ",
"                                     @@@@@@@  @@ >>11====                                           ",
"                                                    >=>                                             ",
"                                           @@@@      @@@@@@@@@                                      ",
"                                                                                                    ",
"                                                                                                    ",
"                                                                                                    ",
"                                                                                                    ",
"                                                                                                    ",
"                                                                                                    ",
"                                                                                                    ",
"                                                                                                    ",
"                                                                                                    ",
"                                                                                                    ",
"                                                                                                    ",
"                                                                                                    ",
"                                                                                                    ",
"                                                                                                    ",
"                                                                                                    ",
"                                                                                                    ",
"                                                                                                    ",
"                                                                                                    ",
"                                                                                                    ",
"                                                                                                    ",
"                                                                                                    ",
"                                                                                                    ",
"                                                                                                    "
};
