/* XPM */
static char *result[] = {
/* columns rows colors chars-per-pixel */
"100 100 31 1 ",
"  c #F5ADCD",
". c #F8AECF",
"X c #F5B2CE",
"o c #F8B3CF",
"O c #F7AFD1",
"+ c #F8AFD0",
"@ c #F6B5D1",
"# c #F8B4D1",
"$ c #F6BBD5",
"% c #F8BAD4",
"& c #F7BFD8",
"* c #F9BFD8",
"= c #F6C0D7",
"- c #F6C2D9",
"; c #F9C4DB",
": c #F7CBDE",
"> c #F9CADE",
", c #F7CCE0",
"< c #F9CEE1",
"1 c #F6D4E4",
"2 c #FAD3E4",
"3 c #F7D8E7",
"4 c #FAD9E7",
"5 c #FAD7E8",
"6 c #F7DBE9",
"7 c #FADAE9",
"8 c #FBE3EE",
"9 c #FCE9EF",
"0 c #FDE6F0",
"q c #F5EBF0",
"w c #FDE9F2",
/* pixels */
"wwwwwwwwwwww88222wwwwwwwwwwww8882wwwwwwwwwwwww88222w8wwwwwwwwwww9225wqwwwwwwwww88w25w88wwwwwwwwwwww5",
"wwwwwwwwwwww87222wwwwwwwwwwww8872wwwwwwwwwwwww88222wwwwwwwwwwww89252wwwwwwwwwwww8852088wwwwwwwwwwww5",
"wwwwwwwwwwww87222wwwwwwwwwwww8882wwwwwww0wwwww80222wwwwwwwwwwww88121qwwwwwwwwwww8w228800wwwwwwwwwww2",
"www. ###,***;,;;-ww   .X%%%-=;;>;www  ###$$&&&;;,;>ww  ####$&**;>>:-ww.  ####%&;;;>>888O ooo*%*&*;;>",
"www .##@$$*-;;;,;ww.  @@*$$&&->;>www.  #X$$&*-;;,;;ww   o#$$&&&;;>>:ww   .o%%#&;;;,,888O Xoo@@&&&-;>",
"www .#@#%%;;,;;;;ww.  @@%$&-->;>;www. X##$#&&-;-;,>w0..##o$@&&-;;>::ww   o#%%%&;,-;,866O XoX*o&&*;;,",
"www#X$$%&&>;<>**&wwX  %@&&&;-:<:&wwwX@$$$&-;;;,>*&&w0@X$@$**;;;,>&**88X@o%%*&&->;,&&808Oo%%%&&;;-;,-",
"www##$%%&-;;>,**&wwX@#$%&&&;>:>:&wwwXX$#$&*;;;>,*&$wwXX$$$*-;;;>;***88####%*&&;>,;&&880%o%%@$&=;;>;-",
"www##$$$&->;,:&**wwXXo$%===>;>>>&www#X$$$&&-;;,<$==w9oX$$@&&;-;:>&&*88ooo%%=;=;:;>-&8q8 @$$$*%-;;,;*",
"www*$&&&;;:,22@@%ww%%%*;;>;<:222@www$#&&&-;,>,<<$$@w9@*=&&;;>>>22@@%w9&@@**;;;><<<%$888$$$$$;;>>;<<#",
"www%$&-&>;,:22%@%ww%%%-*>>;<<<<<#www$$&*-;;:,><<@$@ww@$$&&-;>>>2<@@@8w%$$=*;;;><<,%%889$$&$=;;>,><<%",
"www%$&**;>,,22@*#ww%%%-*;-;<>222@www$$&--;;,>,22$@#w9&$$&&;;:>>:2&@&w8@$%=;;;;>><,%%889$$=$&;;>;><<#",
"www*-;>,:>2<22oooww-;;;>:::22222@www&&;;;>,<<<22#@@w9**;;;::2<<22oXXww**=;;>:;2222X#888-----:>,<<22X",
"www--;;;:>2222oooww-=;;;::>2<222@www&&;>;,>2<222#oX09*&;:;,::2<22XXXww***;;>:;<22<##888=--:->><<,22X",
"www-->>;::2222#oo9w;==;;>>:22244Xwww&=;;;,,<<222$X@w9==;;>>:<2<22oXXww**=;;>;>2222#o888=---->><<:22 ",
"787;;:::224222   88;;;>>22<22211X888-;,:<<<22225   89;;:::<<22222   88;;;:;22:2225..888;::::<<2<211 ",
"888;;::,222225X  88;;;::22<12211X888;-:>:<<22214   q8;;>,>,<21221   q8-;;,;<<22231 Xq86:->>>:22,221 ",
"2<2;>**-@$XXXX  X<1>;;$=@$%##  X 222>>&&=o%ooo     12,<-&&@%@@@  X  11>>,**%%#X X  X:,1::*=*@@o$X   ",
"22,;;***@@ooXX   22>->=$@@@@@ X X222>;&&=%%Xoo   OX22,>&&=$%@X@ XX O31,;,&&%%%X  X  ,1,,:-=*$%@@XX  ",
",12;;***##oo X  X<2;;>$=$@@#XX   222>>&%*%%ooo     52,>-==@$@XXX  OO15;,;*$%@%X     ::,,>&==%@@@$X X",
"wwwwwwwwwwww88242wwwwwwwwwwww8882wwwwwww9wwwww88325wwwwwwwwwqwwq01520wwwwwwwwwwwq833888wwwwwwwwww9q3",
"wwwwwwwwwwww88222wwwwwwwwwwww0782wwwwwww9wwwww8825200wwwwwwwqw000512www0wwwwwww8q833886wwwwwwwwww983",
"wwwwwwwwww9948222wwwwwww0000w8882wwwwwwww9wwww88525ww0w0wwwwwww00252ww88wwwwwwww0w25708wwwwwwww9w0q3",
"www. ###%%-=;;>;>ww   oo%%%**,;;>www .ooo%%***;>>>>0w  XX#%$&&-;;,,,w0  .OX%%%*;;-,,008  XXX@#*&---:",
"www. ##@%%&&;>>>;ww.  XX$$$$*;,,>www ...#$%&&*;;>>;08  oX@$#-&&;;>>>ww  .oo@@&=;;;>>088  XXX@@&&&;-:",
"www. XX@#$*&;;;>:ww  XXX$$$=-;,;>www  oo#%%&&*;->>>w8  #XX#$&&-;>>>>ww   Xo%%&*;-;>;008  X X&@==&-;<",
"wwwX#$$$&&;;>>$&&wwoXX$$&&=;>>>>*wwwXo#@$**;-;<,&&&wwX#@%#&&;-;>>=&*wwXXX#@-&;;><>-;000OX$@$&$--;;>-",
"wwwX#$@$&&>;>>*&&wwoXX$$&&-;;::>&wwwX#@&%**;;;,,&&$wwoX%#$&&;;;;-&&*08##$@@&&;;>>>-*000#X$@X&&--;,>*",
"www##$$@&&;>>:*&&ww@@#$$&&*;;<,,-www##$@***;;;,>&&&wwXo@#%=--;;>-=--09#o%#$&--;>;,&-000@X$X$==;;-,>-",
"www$$&&&>;:,<2%%@ww@@&&&;;;<,2<2@www$@--*;;,,,<2%#$0w@%&--;;<>><2#%#08$$&&*-;>><<<$@008$$===;;;>>,2@",
"www%$&&&;>>:2<%#@ww$$$=&>>;<,2<<%www&@*&*;;,,,<<#$#ww%%&**;;>>>2<%%$00&@&&&;;>,<<<@$888$$$&&;;:>><,@",
"www%$&&&>;,><2#%@ww&$$&&;;;<,<<2%www@$&&*;;,,;<<$$@w8%%&&*;->>><2#%@00@@&&&;->><<<$@88q$$=$=-;::>,<#",
"www-;;;:>>2<22oo#ww&**;;,>,<2225#www-&;;;,,<<<22###ww&&;;;,;<<<22##0ww&&--;:>:<222#o888==---::<<<<2o",
"www==:;;>><222oooww*&*>>>,,22222#www&*>;;,,<<<22##Xww*&-;;>,<2<2<@@00w&--;;:>2<222oo889==--;>>><<22o",
"ww9==;;:<:2222XXoww*&&;;,>,<2222owww**;;;,>2<<52@X#ww--;;>>><<<22@#0w0$-;;;:><<222ooq08&=-;;>::>,22X",
"888:;<,,222224X  88>;;,,2<222225 888;;,<>2<25225X  98;;>>><<22251  000-;>>>::22222  778-;>>><<22<22 ",
"787;-::,<<2222XX 88;;>,,<<222522X888;;,,>2,22222 XX99-;>>><222252@ 088;;>>>:222211XX070;;>>><,<2222.",
"888;>:,,<22211X  88;;;,,2<222125X888;>,,>2<22242X  00;;>>><222523  qw8;->>:<>22111X 707;;>>>,<2<222 ",
"222;>&**#%## X  X22;>>&&#$%#@@ O 225>>*%&@@X## X  X31>>&-&@@#o.oX  343::=**o%oo   XX,,1<,*-*%%@@# Xo",
"212>;@&*%###X    22;;>&-####@ O X522>;**=@&@@#XX X 12<>-&&&@Xo    #333>>;=*%%ooX  X 122,,**-$%@@##  ",
"122->&&&@@## X   22>>--=%%@@@OX# 225;>&&&#@###XX ##22>>*&&@$##X    615>>&*-$@#o XX X11,,,&&*$$@@#X# ",
"99wwwww8wwww88222wwwwwwwww0w09885wwwwwwwwwwwww89522wwwwwwwwwww8ww57wwwwwwwwwwww9q836888qwwwwww0wwww6",
"99wwwwww0www88222w8wwwwwwwwww8885wwwwwwwwwwwww88222wwwwwwwwwwwwww55wqqwwwwwwwwwww856880wwwwwwwwwwwq5",
"ww0wwwwww0ww88221wwwwwwwwwwwwq882wwwwwwwwwwwww88252w9wwwwwwwww8ww55wwwwwwwwwwww98w54888wwwwwwwwqww05",
"ww0  XXo$$&&;;>--ww .  X%%@=*;,;>www. ###$$&-&;>,>>w8  XX%%%*&--;,,www  X.X@#==---,,880 OOXX@$$-$;;<",
"www  XXX$$&&;>;-;ww.  XX%%$&*;;;>www  X##@#--&;;>>>ww   X%##**;;;,>ww8  XXo@%=&-;;<>707  XX @@--&;;<",
"www#X$&@&&;;<>&&&ww#oX$@***;,,,;&www X#$$&&;-;:>&&&wwXo%%***;;>>>**8w8Xo@$$&=;;>:>;*w00#O@$$&$---,;-",
"wwwXX$$&&-;;<:&&&wwXo#@&***;;,,,&www.o$##-&;;;>:&&&w8.o%%&**;->>>**w8wXX$@#&=;;>::;;000+X@@@$-:=;,,-",
"www#X$$#&&;;,,&&&8wXXX$$=-&;;,,,&wwwX#$#%**;;;,,&&&w0XX%%*=&-;:::-*8w8XX$#@-=;;>>>-&q89 @@#%****;,,*",
"ww0$$&&&;;,><<$@$ww$$@=$-;;,,<<<$www%@&&*;;;,,,<@$$ww$%&&-;->;><:$@w8w@$&&&-;>>>,,$%889$$&&$;*,,,,,%",
"www$$&*-;;<,,2$$&ww$@$$=;;;,,<<<@www#$&&*;;,;,<<$$@ww@#&&-;;;>2>,$$0w8%@&&&-;>>:<,%%089$$$&&*;,,,<,%",
"ww0$$&&-;;,>2,$@@ww@&$$$;;;,,<<<$www%@*-*;;,;,<<@@$ww#$*&-;;::>2,@$08w@$&&&;;>><><%%809$$&$*;*,,,<,%",
"www*&;;;::2222#ooww&**;>>>><<222#www*&;;;>><<22<@@#ww$&-;::>2<222Xoww8&*--;>>:<222##888$$---,;<<<<<#",
"www&&;;;::::22X#oww-=;>;>>>2<222Xwww**;;;,,<<<22@@Xww$*-;>>;><221oX088&*;-;>>>>222##888$----;,<<<<<#",
"www&&;;;::2221##o9w;==;;:>><<222@www**;;;,><<<22@X@wq-&-;;;:<:222Xo8w8**;;;>>:>222##888==---,,<<<<<#",
"888;;,,>222222X X88;;;:>2<<22225X080;;>>><<22222 X q0-->;<2>22422X www*;>>><222222  888>-:::<<<2222#",
"w70;-,>,2>2232XXX88>-;::2<<22221X880;;,>><<22225XXX8w;-,><<<22221XXwww;->,,<<<2222 X888=-,,;<<<2<22X",
"080;;>,><22221X  88-:;:;<<<22421X808;;>>;<<2<231XXXww;;;;<<>22221  ww8-->;,,<22122X 888--<,,<<2<222 ",
"221;>&&&%%ooX    22>:>=;#@$X#XXX 425>>&&&%$###X    52,>*=%%%@@o XOO525<,--&%%#@ oo O111:<&*-$%@##X# ",
"121,;&&&%ooo X  #22>:;==%$$@XXXX 155>>&&&%$###@@  .77>>*-%%%@# #OOO352<,-*&%$X#XXX +111,<--&$*@@#X#+",
"<22,,*$*@$@#X    22>>>--@@$##XXXO577->==;%%#@X@X   52,,**%%*XXX@@OO355<2-;*%$@XXXXO#111:<;&;**%%##X ",
"www0wwwwww0088115wwwwwwwwwwww8882wwwwwwwwwwwww0w334wwwwwwwwwwww005300wwwwwwwww0ww065888qwwwwwwwwwww5",
"www0wwww0w0098322wwwwwwwwwwwww882wwwwwwwwww0w0w8243wwwwwwwww0q0ww56wwwwwwwwwwww00w558088wwwwwwwwwww7",
"www0wwwwqw0q98422wwwwwwww8www8984wwwwwwwwww0qw8w634wwwwwwwww0w0ww56wqwwwwwwwwwwww0668889wwwwwwwwwww7",
"ww0. #X#$@==>-:>>ww   .@@$$$&;;;>www. oo @%=&&;;:>:w0   o$#$&&;;;,,wwwO XXX$@==--;<<868    XX$=$$--<",
"ww0.  X@&@==>>>>:ww   O#@$$&&-;;>www  ooo#@=&&;;>>>0q   X#$#$&*;*,,www  XXX@@==---,<888   XXXX==*=*:",
"www. #@@@&==->>:>ww  .%#$$$&=-;>>www   oX#$-**;;:>>w8   X$%@&&-;;,,ww0  oXX@$=$-;-<>886    X@X==**;<",
"www#X$$$=;;;::===w8o@ %#&&&-;>>>*www..%#$&&-;;;,===w9 .#@*-&-->,,**008  @@@===-:,>--000@ X@@=$==;>;*",
"www#X$$%&&;;::==-wwXXo%%&&=-:>:>*wwwoo@@@&=;-;>>&&-8woo#@--**;>>,;*880OO@%@==;;>;,;*000@@@@@=@--;>>*",
"wwwXX%%$&->;:,=$=wwXXo%$&&->-:>>=wwwXo$@@&=--;>>&&&ww.X@#***;;,,,*-808@ %@%$*;;>>>*;000@X@$@==--->>;",
"www%$&&&;;,>1,@$@ww%$@-&->>>><2,%www@@&&-->>:><<%%%ww@@-*;;;;,<<,%%w00#%&$=;;;:<<<%%000@$=$=--::><2@",
"www&%&&&;;>,2,$$$ww%@$&&>-->><<2%www@&$&&--::><<#%$ww#%-*;;;,;<<<%%000$@=$*;;;;<<<%%000%$=$=--::>::&",
"www%%=*-;;,>2<$$$ww@%%=;->>;::2<%www%#=&*;;,,,<<%$$w8@$*&;;;>><<<%%088#%&*&-;;:<<<%%00q$$$$=--::>:<@",
"www*-;;;:,2<24@X#ww&*=;;>>:,2222Xwww&&->;;,<<<<<#Xo0w&=;;>>><<22<##www-*--->><<2<<##007&==--::::>22o",
"www*&;>;,,<<22@@oww=$=;>>>>2>222Xwww&&=;;,,<<<22@@@w9&*;->>><<222o#www*%*;-,:<:22<##888&=--->>,,:22X",
"www&-;;;>,<<21X@@w9&==;;>>>,<222Xwww&&-;;;;<<<<2X@X0w**;;>>><<222X.www&*-;;>:<:222##880&=---;>1,>22#",
"888>;>:><<2252 OX08;;;::2<<22224 w8w;;>>,<<2<252 XX98-->><<<22222XX8ww;;>>>:<2,222XX870-;>>>,,12222X",
"888;;,:><<2225# X80;;;:;><<22222X8w8;;>>><<22225XXX9w-;>>,:<2<222XXw8w*;>;><:22222 X070*->>>,,22222X",
"808>;>>><<2252X#@00-;;;;2><22242 w8w;;>>><<2<252XX 99=;>><<:<2222XXwww-->>><<22211 X888-->>>,:<2222X",
"222:>&&&%%##XX   24:::=*%%%X# .##247:>*-*%%o@@  XXX352:--%$$##XXX  545<<**&$$ooXX XX111<<---$&###XX ",
"722>>&&&%%#%XX # 31,<<&&$%=@@XX .545>>;;-&$XXX OO o77<<--@&@@#X##OO675<<---&$@# oX#O111,,&&&$$O$#XXX",
"wwwwww9w00qq90111wwwwwwwwwwqq98q2wwwwwwwwwwqqqqq444wwwwww99qqqwww560wwwwwwwww0wqqq658880wwwwww0wwwq5",
"wwwwwwww00qw98126wwwwwqwwwwqqqq97wwwwwwwwwwqq9ww444wwwwwww989qwqw660wwwwwwwwwq0qq9468880www0ww0q9qw7",
"wwwwwwwqw00q8q111wwwwwwqwwwqqq994wwwwwwwwwwqqqqw445wwww9w9988qwww550ww08wwwww00wq9488680wwww9www9ww7",
"www  XXX$@&&;;>>>w0    X#%o*&;;->www  XX%%#$&$;-:::ww   X@@%$***-,2www  $OO@#***;-<,008  X  @#**%;*<",
"www  @X$@$$$;;>>>w0   @O%#%*$-;;>www .#XO@%&&&--:::w8   X#%#&&---,:www  OOX$#***--,<888   XX@$***-;,",
"www  XX@$$=$;;>>>ww   X@#%#**;;;>www  X##%@&&&-->>:w8  XX###***--:,wqq  XOX@#**;;-<,888   X ##%***;>",
"wwwXX$@#&-;;>>&*&ww# X@$&&*;;>>>*ww8  @%%$$---,>--=wq X@o&&=;->>>--w88 X@@@&*;*;>>-;008OX@##**--;>;;",
"wwwX#$#$**;;,,***wwoXX@%&&=;;>>>-wwwoX%$#$*;;;>>*--ww X#%&&&-->>>-*w00  @$@&&--,;,-&88qXX@X$$$--=::;",
"wwwo.#$#**;;,,**&wwooo%@&&=;;>>>-wwwX.@@@&*;;;>,***ww X@#*$&-->>>-*0w8 X@@@&&--,,,,&008XX@$@&$--;:>;",
"www$#&&&;;>>,<%#@ww#%%&&;;;:>>:2$www%@-&=;;>>><<%$$ww@@=*-;;,,,<<%%0w8@@&&&*-,,,,,%%888@$$-&--,,>:<$",
"www#@&&&;;>><<%%%w9%%o&*-;->>:2>@www#@=&=;;>>><<%$@ww@@&%;;;,><<<%*w8w@&$&&;-,;<,,%%0qq$$$$---,-><<$",
"www#@--;;;,><2@$@ww%%%*=;;;>>>2>$www%@**&-;>>><<$$$0w$@$*;;*>><><&%8w8@$**$;*,,<,<*%q88$$***;*>;>::$",
"www*-;-,,,<<21X@@ww-$*;-;>>22222owww$*;;;>::<<2<X@@ww=--*,,,2>222##w8w&&;*;;,,,2<<##888$&-*;,,<<>22o",
"www**;;,,;<222o@Xww&=*;;>>>>>222owww=$;;;>:2<<2<@@@0q$$;;,,,<<2<<#@w89&$;;;>;<<<2<##888&&-;->>,<:22#",
"www**;;,>><<21#o#ww&==;;>>><<222owww$=;;;>>><,22@X#w0&&;*,,><<222##8w8=$*;*>,<<<22##888&&--->><,:2<o",
"w08;;::<<22222XXX99--;:><>>22122X009;;>:><<22222X Xww=;>><<<<2222XX8w0*;,,><>2<222XX867;;>>>:222222 ",
"88>;;>>2<<2224XXXw8-;;>><2222222@0w0;->>><:22222X X9w;;>><<<22222XXwww**;,><<22222XX788;;,>><:2>222.",
"8w;;;>><<22242XXX88;;;>><<:22222Xw8w;;>>::>22222 Xoww;;>>:<<2<222XX8ww;-,,;<:22222XX888-->>>::22222 ",
"42::>-=%%#XX    X55:::==%%%oXo.o 263,:--=**ooo oo .44::=;*%%ooo. .o665<<*;;%*oo XX..222<2--=%*o#ooo "
};
