/* XPM */
static char *result[] = {
/* columns rows colors chars-per-pixel */
"100 100 3 1 ",
"  c #F6ACCD",
". c #FCC5DD",
"X c #F8D8E6",
/* pixels */
"XXXXXXXXXXXXX                                     XXXXXXXXXXXXX                                     ",
"XXXXXXXXXXXXX                                     XXXXXXXXXXXXX                                     ",
"XXXXXXXXXXXXX                                     XXXXXXXXXXXXX                                     ",
"XXXXXXXXXXXXX                                     XXXXXXXXXXXXX                                     ",
"XXXXXXXXXXXXX                                     XXXXXXXXXXXXX                                     ",
"XXXXXXXXXXXXX                                     XXXXXXXXXXXXX                                     ",
"      XXXXXXXXXXXXX                                     XXXXXXXXXXXXX                               ",
"      XXXXXXXXXXXXX                                     XXXXXXXXXXXXX                               ",
"      XXXXXXXXXXXXX                                     XXXXXXXXXXXXX                               ",
"      XXXXXXXXXXXXX                                     XXXXXXXXXXXXX                               ",
"      XXXXXXXXXXXXX                                     XXXXXXXXXXXXX                               ",
"      XXXXXXXXXXXXX                                     XXXXXXXXXXXXX                               ",
"      XXXXXXXXXXXXX                                     XXXXXXXXXXXXX                               ",
"                   XXXXXXXXXXXX                                      XXXXXXXXXXXX                   ",
"                   XXXXXXXXXXXX                                      XXXXXXXXXXXX                   ",
"                   XXXXXXXXXXXX                                      XXXXXXXXXXXX                   ",
"                   XXXXXXXXXXXX                                      XXXXXXXXXXXX                   ",
"                   XXXXXXXXXXXX                                      XXXXXXXXXXXX                   ",
"                   XXXXXXXXXXXX                                      XXXXXXXXXXXX                   ",
"             ......      XXXXXXXXXXXXX                         ......      XXXXXXXXXXXX             ",
"             ......      XXXXXXXXXXXXX                         ......      XXXXXXXXXXXX             ",
"             ......      XXXXXXXXXXXXX                         ......      XXXXXXXXXXXX             ",
"             ......      XXXXXXXXXXXXX                         ......      XXXXXXXXXXXX             ",
"             ......      XXXXXXXXXXXXX                         ......      XXXXXXXXXXXX             ",
"             ......      XXXXXXXXXXXXX                         ......      XXXXXXXXXXXX             ",
"                   ......      XXXXXXX                               ......      XXXXXX             ",
"                   ......      XXXXXXX                               ......      XXXXXX             ",
"                   ......      XXXXXXX                               ......      XXXXXX             ",
"                   ......      XXXXXXX                               ......      XXXXXX             ",
"                   ......      XXXXXXX                               ......      XXXXXX             ",
"                   ......      XXXXXXX                               ......      XXXXXX             ",
"                         ......       XXXXXX                               ......      XXXXXXX      ",
"                         ......       XXXXXX                               ......      XXXXXXX      ",
"                         ......       XXXXXX                               ......      XXXXXXX      ",
"                         ......       XXXXXX                               ......      XXXXXXX      ",
"                         ......       XXXXXX                               ......      XXXXXXX      ",
"                         ......       XXXXXX                               ......      XXXXXXX      ",
"                         ......       XXXXXX                                           XXXXXXXXXXXXX",
"                                      XXXXXXXXXXXX                                     XXXXXXXXXXXXX",
"                                      XXXXXXXXXXXX                                     XXXXXXXXXXXXX",
"                                      XXXXXXXXXXXX                                     XXXXXXXXXXXXX",
"                                      XXXXXXXXXXXX                                     XXXXXXXXXXXXX",
"                                      XXXXXXXXXXXX                                     XXXXXXXXXXXXX",
"                                      XXXXXXXXXXXX                                     XXXXXXXXXXXXX",
"                                            XXXXXX                                            XXXXXX",
"                                            XXXXXX                                            XXXXXX",
"                                            XXXXXX                                            XXXXXX",
"                                            XXXXXX                                            XXXXXX",
"                                            XXXXXX                                            XXXXXX",
"                                            XXXXXX                                            XXXXXX",
"XXXXXXXXXXXXX                                     XXXXXXXXXXXX                                      ",
"XXXXXXXXXXXXX                                     XXXXXXXXXXXX                                      ",
"XXXXXXXXXXXXX                                     XXXXXXXXXXXX                                      ",
"XXXXXXXXXXXXX                                     XXXXXXXXXXXX                                      ",
"XXXXXXXXXXXXX                                     XXXXXXXXXXXX                                      ",
"XXXXXXXXXXXXX                                     XXXXXXXXXXXX                                      ",
"      XXXXXXXXXXXXX                                     XXXXXXXXXXXXX                               ",
"      XXXXXXXXXXXXX                                     XXXXXXXXXXXXX                               ",
"      XXXXXXXXXXXXX                                     XXXXXXXXXXXXX                               ",
"      XXXXXXXXXXXXX                                     XXXXXXXXXXXXX                               ",
"      XXXXXXXXXXXXX                                     XXXXXXXXXXXXX                               ",
"      XXXXXXXXXXXXX                                     XXXXXXXXXXXXX                               ",
"      XXXXXXXXXXXXX                                                  XXXXXXXXXXXX                   ",
"                   XXXXXXXXXXXX                                      XXXXXXXXXXXX                   ",
"                   XXXXXXXXXXXX                                      XXXXXXXXXXXX                   ",
"                   XXXXXXXXXXXX                                      XXXXXXXXXXXX                   ",
"                   XXXXXXXXXXXX                                      XXXXXXXXXXXX                   ",
"                   XXXXXXXXXXXX                                      XXXXXXXXXXXX                   ",
"                   XXXXXXXXXXXX                                      XXXXXXXXXXXX                   ",
"             ......      XXXXXXXXXXXX                         .......      XXXXXXXXXXXX             ",
"             ......      XXXXXXXXXXXX                         .......      XXXXXXXXXXXX             ",
"             ......      XXXXXXXXXXXX                         .......      XXXXXXXXXXXX             ",
"             ......      XXXXXXXXXXXX                         .......      XXXXXXXXXXXX             ",
"             ......      XXXXXXXXXXXX                         .......      XXXXXXXXXXXX             ",
"             ......      XXXXXXXXXXXX                         .......      XXXXXXXXXXXX             ",
"                   ......      XXXXXX                                ......      XXXXXX             ",
"                   ......      XXXXXX                                ......      XXXXXX             ",
"                   ......      XXXXXX                                ......      XXXXXX             ",
"                   ......      XXXXXX                                ......      XXXXXX             ",
"                   ......      XXXXXX                                ......      XXXXXX             ",
"                   ......      XXXXXX                                ......      XXXXXX             ",
"                         ......      XXXXXXX                               ......      XXXXXXX      ",
"                         ......      XXXXXXX                               ......      XXXXXXX      ",
"                         ......      XXXXXXX                               ......      XXXXXXX      ",
"                         ......      XXXXXXX                               ......      XXXXXXX      ",
"                         ......      XXXXXXX                               ......      XXXXXXX      ",
"                         ......      XXXXXXX                               ......      XXXXXXX      ",
"                                     XXXXXXXXXXXXX                                     XXXXXXXXXXXXX",
"                                     XXXXXXXXXXXXX                                     XXXXXXXXXXXXX",
"                                     XXXXXXXXXXXXX                                     XXXXXXXXXXXXX",
"                                     XXXXXXXXXXXXX                                     XXXXXXXXXXXXX",
"                                     XXXXXXXXXXXXX                                     XXXXXXXXXXXXX",
"                                     XXXXXXXXXXXXX                                     XXXXXXXXXXXXX",
"                                     XXXXXXXXXXXXX                                     XXXXXXXXXXXXX",
"                                            XXXXXX                                            XXXXXX",
"                                            XXXXXX                                            XXXXXX",
"                                            XXXXXX                                            XXXXXX",
"                                            XXXXXX                                            XXXXXX",
"                                            XXXXXX                                            XXXXXX",
"                                            XXXXXX                                            XXXXXX"
};
