/* XPM */
static char *_a9449c99e0e435dec6b6f686741f8ed8VRWHUKIvvQ8of4H[] = {
/* columns rows colors chars-per-pixel */
"100 100 3 1 ",
"  c #F6ACCD",
". c #FCC5DD",
"X c #F8D8E6",
/* pixels */
"      XXXXXXX      XXXXXX                                      XXXXXX      XXXXXXXXXXXXX            ",
"      XXXXXXX      XXXXXX                                      XXXXXX      XXXXXXXXXXXXX            ",
"      XXXXXXX      XXXXXX                                      XXXXXX      XXXXXXXXXXXXX            ",
"      XXXXXXX      XXXXXX                                      XXXXXX      XXXXXXXXXXXXX            ",
"      XXXXXXX      XXXXXX                                      XXXXXX      XXXXXXXXXXXXX            ",
"      XXXXXXX      XXXXXX                                      XXXXXX      XXXXXXXXXXXXX            ",
"XXXXXX                   XXXXXXXXXXXXXXXXXXXXXXXXXXXXXXX       XXXXXX            XXXXXXX      XXXXXX",
"XXXXXX                   XXXXXXXXXXXXXXXXXXXXXXXXXXXXXXX       XXXXXX            XXXXXXX      XXXXXX",
"XXXXXX                   XXXXXXXXXXXXXXXXXXXXXXXXXXXXXXX       XXXXXX            XXXXXXX      XXXXXX",
"XXXXXX                   XXXXXXXXXXXXXXXXXXXXXXXXXXXXXXX       XXXXXX            XXXXXXX      XXXXXX",
"XXXXXX                   XXXXXXXXXXXXXXXXXXXXXXXXXXXXXXX       XXXXXX            XXXXXXX      XXXXXX",
"XXXXXX                   XXXXXXXXXXXXXXXXXXXXXXXXXXXXXXX       XXXXXX            XXXXXXX      XXXXXX",
"XXXXXX                   XXXXXXXXXXXXXXXXXXXXXXXXXXXXXXX       XXXXXX            XXXXXXXXXXXXX      ",
"             XXXXXXXXXXXXXXXXXX.........................XXXXXXXXXXXXXXXXXXXXXXXXX      XXXXXXX      ",
"             XXXXXXXXXXXXXXXXXX.........................XXXXXXXXXXXXXXXXXXXXXXXXX      XXXXXXX      ",
"             XXXXXXXXXXXXXXXXXX.........................XXXXXXXXXXXXXXXXXXXXXXXXX      XXXXXXX      ",
"             XXXXXXXXXXXXXXXXXX.........................XXXXXXXXXXXXXXXXXXXXXXXXX      XXXXXXX      ",
"             XXXXXXXXXXXXXXXXXX.........................XXXXXXXXXXXXXXXXXXXXXXXXX      XXXXXXX      ",
"             XXXXXXXXXXXXXXXXXX.........................XXXXXXXXXXXXXXXXXXXXXXXXX      XXXXXXX      ",
"      XXXXXXX.........................                  ...................XXXXXX                   ",
"      XXXXXXX.........................                  ...................XXXXXX                   ",
"      XXXXXXX.........................                  ...................XXXXXX                   ",
"      XXXXXXX.........................                  ...................XXXXXX                   ",
"      XXXXXXX.........................                  ...................XXXXXX                   ",
"      XXXXXXX.........................                  ...................XXXXXX                   ",
"XXXXXX.......                                                              ......XXXXXX             ",
"XXXXXX.......                                                              ......XXXXXX             ",
"XXXXXX.......                                                              ......XXXXXX             ",
"XXXXXX.......                                                              ......XXXXXX             ",
"XXXXXX.......                                                              ......XXXXXX             ",
"XXXXXX.......                                                              ......XXXXXX             ",
"                         XXXXXXXXXXXXXXXXXXXXXXXXXXXXXXXXXXXXXX                  ......XXXXXXX      ",
"                         XXXXXXXXXXXXXXXXXXXXXXXXXXXXXXXXXXXXXX                  ......XXXXXXX      ",
"                         XXXXXXXXXXXXXXXXXXXXXXXXXXXXXXXXXXXXXX                  ......XXXXXXX      ",
"                         XXXXXXXXXXXXXXXXXXXXXXXXXXXXXXXXXXXXXX                  ......XXXXXXX      ",
"                         XXXXXXXXXXXXXXXXXXXXXXXXXXXXXXXXXXXXXX                  ......XXXXXXX      ",
"                         XXXXXXXXXXXXXXXXXXXXXXXXXXXXXXXXXXXXXX                  ......XXXXXXX      ",
"                         XXXXXXXXXXXXXXXXXXXXXXXXXXXXXXXXXXXXXXXXXXXX            ......XXXXXXX      ",
"                   XXXXXXXXXXXX                   ............XXXXXXX            ......XXXXXXX      ",
"                   XXXXXXXXXXXX                   ............XXXXXXX            ......XXXXXXX      ",
"                   XXXXXXXXXXXX                   ............XXXXXXX            ......XXXXXXX      ",
"                   XXXXXXXXXXXX                   ............XXXXXXX            ......XXXXXXX      ",
"                   XXXXXXXXXXXX                   ............XXXXXXX            ......XXXXXXX      ",
"                   XXXXXXXXXXXX                   ............XXXXXXX            ......XXXXXXX      ",
"             XXXXXX............       XXXXXX                  .......XXXXXX      ......XXXXXXX      ",
"             XXXXXX............       XXXXXX                  .......XXXXXX      ......XXXXXXX      ",
"             XXXXXX............       XXXXXX                  .......XXXXXX      ......XXXXXXX      ",
"             XXXXXX............       XXXXXX                  .......XXXXXX      ......XXXXXXX      ",
"             XXXXXX............       XXXXXX                  .......XXXXXX      ......XXXXXXX      ",
"             XXXXXX............       XXXXXX                  .......XXXXXX      ......XXXXXXX      ",
"      XXXXXXX............      XXXXXXX                        .......XXXXXX      ......XXXXXXXXXXXXX",
"      XXXXXXX............      XXXXXXX                        .......XXXXXX      ......XXXXXXXXXXXXX",
"      XXXXXXX............      XXXXXXX                        .......XXXXXX      ......XXXXXXXXXXXXX",
"      XXXXXXX............      XXXXXXX                        .......XXXXXX      ......XXXXXXXXXXXXX",
"      XXXXXXX............      XXXXXXX                        .......XXXXXX      ......XXXXXXXXXXXXX",
"      XXXXXXX............      XXXXXXX                        .......XXXXXX      ......XXXXXXXXXXXXX",
"      XXXXXXX............      XXXXXXXXXXXXX      ......XXXXXXXXXXXXX            ......XXXXXXX      ",
"      XXXXXXX............      XXXXXXXXXXXXX      ......XXXXXXXXXXXXX            ......XXXXXXX      ",
"      XXXXXXX............      XXXXXXXXXXXXX      ......XXXXXXXXXXXXX            ......XXXXXXX      ",
"      XXXXXXX............      XXXXXXXXXXXXX      ......XXXXXXXXXXXXX            ......XXXXXXX      ",
"      XXXXXXX............      XXXXXXXXXXXXX      ......XXXXXXXXXXXXX            ......XXXXXXX      ",
"      XXXXXXX............      XXXXXXXXXXXXX      ......XXXXXXXXXXXXX            ......XXXXXXX      ",
"      XXXXXXX............                   XXXXXXXXXXXX                   ............XXXXXXX      ",
"      XXXXXXX............                   XXXXXXXXXXXX                   ............XXXXXXX      ",
"      XXXXXXX............                   XXXXXXXXXXXX                   ............XXXXXXX      ",
"      XXXXXXX............                   XXXXXXXXXXXX                   ............XXXXXXX      ",
"      XXXXXXX............                   XXXXXXXXXXXX                   ............XXXXXXX      ",
"      XXXXXXX............                   XXXXXXXXXXXX                   ............XXXXXXX      ",
"      XXXXXXX............                   XXXXXXXXXXXX                   ............XXXXXXX      ",
"             XXXXXX............                                      ............XXXXXX             ",
"             XXXXXX............                                      ............XXXXXX             ",
"             XXXXXX............                                      ............XXXXXX             ",
"             XXXXXX............                                      ............XXXXXX             ",
"             XXXXXX............                                      ............XXXXXX             ",
"             XXXXXX............                                      ............XXXXXX             ",
"XXXXXX             XXXXXX..................................................XXXXXXXXXXXX       XXXXXX",
"XXXXXX             XXXXXX..................................................XXXXXXXXXXXX       XXXXXX",
"XXXXXX             XXXXXX..................................................XXXXXXXXXXXX       XXXXXX",
"XXXXXX             XXXXXX..................................................XXXXXXXXXXXX       XXXXXX",
"XXXXXX             XXXXXX..................................................XXXXXXXXXXXX       XXXXXX",
"XXXXXX             XXXXXX..................................................XXXXXXXXXXXX       XXXXXX",
"             XXXXXX      XXXXXXXXXXXXXXXXXXXXXXXXXXXXXXXXXXXXXXXXXXXXXXXXXX            XXXXXXX      ",
"             XXXXXX      XXXXXXXXXXXXXXXXXXXXXXXXXXXXXXXXXXXXXXXXXXXXXXXXXX            XXXXXXX      ",
"             XXXXXX      XXXXXXXXXXXXXXXXXXXXXXXXXXXXXXXXXXXXXXXXXXXXXXXXXX            XXXXXXX      ",
"             XXXXXX      XXXXXXXXXXXXXXXXXXXXXXXXXXXXXXXXXXXXXXXXXXXXXXXXXX            XXXXXXX      ",
"             XXXXXX      XXXXXXXXXXXXXXXXXXXXXXXXXXXXXXXXXXXXXXXXXXXXXXXXXX            XXXXXXX      ",
"             XXXXXX      XXXXXXXXXXXXXXXXXXXXXXXXXXXXXXXXXXXXXXXXXXXXXXXXXX            XXXXXXX      ",
"                               XXXXXX       XXXXXX                         XXXXXXXXXXXX             ",
"XXXXXXXXXXXX                   XXXXXX       XXXXXX                         XXXXXXXXXXXX             ",
"XXXXXXXXXXXX                   XXXXXX       XXXXXX                         XXXXXXXXXXXX             ",
"XXXXXXXXXXXX                   XXXXXX       XXXXXX                         XXXXXXXXXXXX             ",
"XXXXXXXXXXXX                   XXXXXX       XXXXXX                         XXXXXXXXXXXX             ",
"XXXXXXXXXXXX                   XXXXXX       XXXXXX                         XXXXXXXXXXXX             ",
"XXXXXXXXXXXX                   XXXXXX       XXXXXX                         XXXXXXXXXXXX             ",
"                   XXXXXXXXXXXX             XXXXXXXXXXXX      XXXXXXXXXXXXX                   XXXXXX",
"                   XXXXXXXXXXXX             XXXXXXXXXXXX      XXXXXXXXXXXXX                   XXXXXX",
"                   XXXXXXXXXXXX             XXXXXXXXXXXX      XXXXXXXXXXXXX                   XXXXXX",
"                   XXXXXXXXXXXX             XXXXXXXXXXXX      XXXXXXXXXXXXX                   XXXXXX",
"                   XXXXXXXXXXXX             XXXXXXXXXXXX      XXXXXXXXXXXXX                   XXXXXX",
"                   XXXXXXXXXXXX             XXXXXXXXXXXX      XXXXXXXXXXXXX                   XXXXXX"
};
