/* XPM */
static char *_1504d0c6f0240c2b3236f47ebfb8453dcCoHedCvd8UZtGD[] = {
/* columns rows colors chars-per-pixel */
"100 100 3 1 ",
"  c #F6ACCD",
". c #FCC5DD",
"X c #F8D8E6",
/* pixels */
"XXXXXX                   XXXXXXXXXXXXX      XXXXXXXXXXXX             XXXXXXXXXXXX                   ",
"XXXXXX                   XXXXXXXXXXXXX      XXXXXXXXXXXX             XXXXXXXXXXXX                   ",
"XXXXXX                   XXXXXXXXXXXXX      XXXXXXXXXXXX             XXXXXXXXXXXX                   ",
"XXXXXX                   XXXXXXXXXXXXX      XXXXXXXXXXXX             XXXXXXXXXXXX                   ",
"XXXXXX                   XXXXXXXXXXXXX      XXXXXXXXXXXX             XXXXXXXXXXXX                   ",
"XXXXXX                   XXXXXXXXXXXXX      XXXXXXXXXXXX             XXXXXXXXXXXX                   ",
"             XXXXXXXXXXXX                         XXXXXX       XXXXXX                   XXXXXXXXXXXX",
"             XXXXXXXXXXXX                         XXXXXX       XXXXXX                   XXXXXXXXXXXX",
"             XXXXXXXXXXXX                         XXXXXX       XXXXXX                   XXXXXXXXXXXX",
"             XXXXXXXXXXXX                         XXXXXX       XXXXXX                   XXXXXXXXXXXX",
"             XXXXXXXXXXXX                         XXXXXX       XXXXXX                   XXXXXXXXXXXX",
"             XXXXXXXXXXXX                         XXXXXX       XXXXXX                   XXXXXXXXXXXX",
"             XXXXXXXXXXXX                         XXXXXX       XXXXXX                               ",
"      XXXXXXX            XXXXXXXXXXXXXXXXXXXXXXXXXXXXXXXXXXXXXXXXXXXXXXXXXX      XXXXXX             ",
"      XXXXXXX            XXXXXXXXXXXXXXXXXXXXXXXXXXXXXXXXXXXXXXXXXXXXXXXXXX      XXXXXX             ",
"      XXXXXXX            XXXXXXXXXXXXXXXXXXXXXXXXXXXXXXXXXXXXXXXXXXXXXXXXXX      XXXXXX             ",
"      XXXXXXX            XXXXXXXXXXXXXXXXXXXXXXXXXXXXXXXXXXXXXXXXXXXXXXXXXX      XXXXXX             ",
"      XXXXXXX            XXXXXXXXXXXXXXXXXXXXXXXXXXXXXXXXXXXXXXXXXXXXXXXXXX      XXXXXX             ",
"      XXXXXXX            XXXXXXXXXXXXXXXXXXXXXXXXXXXXXXXXXXXXXXXXXXXXXXXXXX      XXXXXX             ",
"XXXXXX       XXXXXXXXXXXX..................................................XXXXXX             XXXXXX",
"XXXXXX       XXXXXXXXXXXX..................................................XXXXXX             XXXXXX",
"XXXXXX       XXXXXXXXXXXX..................................................XXXXXX             XXXXXX",
"XXXXXX       XXXXXXXXXXXX..................................................XXXXXX             XXXXXX",
"XXXXXX       XXXXXXXXXXXX..................................................XXXXXX             XXXXXX",
"XXXXXX       XXXXXXXXXXXX..................................................XXXXXX             XXXXXX",
"             XXXXXX............                                      ............XXXXXX             ",
"             XXXXXX............                                      ............XXXXXX             ",
"             XXXXXX............                                      ............XXXXXX             ",
"             XXXXXX............                                      ............XXXXXX             ",
"             XXXXXX............                                      ............XXXXXX             ",
"             XXXXXX............                                      ............XXXXXX             ",
"      XXXXXXX............                   XXXXXXXXXXXX                   ............XXXXXXX      ",
"      XXXXXXX............                   XXXXXXXXXXXX                   ............XXXXXXX      ",
"      XXXXXXX............                   XXXXXXXXXXXX                   ............XXXXXXX      ",
"      XXXXXXX............                   XXXXXXXXXXXX                   ............XXXXXXX      ",
"      XXXXXXX............                   XXXXXXXXXXXX                   ............XXXXXXX      ",
"      XXXXXXX............                   XXXXXXXXXXXX                   ............XXXXXXX      ",
"      XXXXXXX............                   XXXXXXXXXXXX                   ............XXXXXXX      ",
"      XXXXXXX......            XXXXXXXXXXXXX......      XXXXXXXXXXXXX      ............XXXXXXX      ",
"      XXXXXXX......            XXXXXXXXXXXXX......      XXXXXXXXXXXXX      ............XXXXXXX      ",
"      XXXXXXX......            XXXXXXXXXXXXX......      XXXXXXXXXXXXX      ............XXXXXXX      ",
"      XXXXXXX......            XXXXXXXXXXXXX......      XXXXXXXXXXXXX      ............XXXXXXX      ",
"      XXXXXXX......            XXXXXXXXXXXXX......      XXXXXXXXXXXXX      ............XXXXXXX      ",
"      XXXXXXX......            XXXXXXXXXXXXX......      XXXXXXXXXXXXX      ............XXXXXXX      ",
"XXXXXXXXXXXXX......      XXXXXX.......                        XXXXXXX      ............XXXXXXX      ",
"XXXXXXXXXXXXX......      XXXXXX.......                        XXXXXXX      ............XXXXXXX      ",
"XXXXXXXXXXXXX......      XXXXXX.......                        XXXXXXX      ............XXXXXXX      ",
"XXXXXXXXXXXXX......      XXXXXX.......                        XXXXXXX      ............XXXXXXX      ",
"XXXXXXXXXXXXX......      XXXXXX.......                        XXXXXXX      ............XXXXXXX      ",
"XXXXXXXXXXXXX......      XXXXXX.......                        XXXXXXX      ............XXXXXXX      ",
"      XXXXXXX......      XXXXXX.......                  XXXXXX       ............XXXXXX             ",
"      XXXXXXX......      XXXXXX.......                  XXXXXX       ............XXXXXX             ",
"      XXXXXXX......      XXXXXX.......                  XXXXXX       ............XXXXXX             ",
"      XXXXXXX......      XXXXXX.......                  XXXXXX       ............XXXXXX             ",
"      XXXXXXX......      XXXXXX.......                  XXXXXX       ............XXXXXX             ",
"      XXXXXXX......      XXXXXX.......                  XXXXXX       ............XXXXXX             ",
"      XXXXXXX......            XXXXXXX............                   XXXXXXXXXXXX                   ",
"      XXXXXXX......            XXXXXXX............                   XXXXXXXXXXXX                   ",
"      XXXXXXX......            XXXXXXX............                   XXXXXXXXXXXX                   ",
"      XXXXXXX......            XXXXXXX............                   XXXXXXXXXXXX                   ",
"      XXXXXXX......            XXXXXXX............                   XXXXXXXXXXXX                   ",
"      XXXXXXX......            XXXXXXX............                   XXXXXXXXXXXX                   ",
"      XXXXXXX......            XXXXXXXXXXXXXXXXXXXXXXXXXXXXXXXXXXXXXXXXXXXX                         ",
"      XXXXXXX......                  XXXXXXXXXXXXXXXXXXXXXXXXXXXXXXXXXXXXXX                         ",
"      XXXXXXX......                  XXXXXXXXXXXXXXXXXXXXXXXXXXXXXXXXXXXXXX                         ",
"      XXXXXXX......                  XXXXXXXXXXXXXXXXXXXXXXXXXXXXXXXXXXXXXX                         ",
"      XXXXXXX......                  XXXXXXXXXXXXXXXXXXXXXXXXXXXXXXXXXXXXXX                         ",
"      XXXXXXX......                  XXXXXXXXXXXXXXXXXXXXXXXXXXXXXXXXXXXXXX                         ",
"      XXXXXXX......                  XXXXXXXXXXXXXXXXXXXXXXXXXXXXXXXXXXXXXX                         ",
"             XXXXXX......                                                              .......XXXXXX",
"             XXXXXX......                                                              .......XXXXXX",
"             XXXXXX......                                                              .......XXXXXX",
"             XXXXXX......                                                              .......XXXXXX",
"             XXXXXX......                                                              .......XXXXXX",
"             XXXXXX......                                                              .......XXXXXX",
"                   XXXXXX...................                  .........................XXXXXXX      ",
"                   XXXXXX...................                  .........................XXXXXXX      ",
"                   XXXXXX...................                  .........................XXXXXXX      ",
"                   XXXXXX...................                  .........................XXXXXXX      ",
"                   XXXXXX...................                  .........................XXXXXXX      ",
"                   XXXXXX...................                  .........................XXXXXXX      ",
"      XXXXXXX      XXXXXXXXXXXXXXXXXXXXXXXXX.........................XXXXXXXXXXXXXXXXXX             ",
"      XXXXXXX      XXXXXXXXXXXXXXXXXXXXXXXXX.........................XXXXXXXXXXXXXXXXXX             ",
"      XXXXXXX      XXXXXXXXXXXXXXXXXXXXXXXXX.........................XXXXXXXXXXXXXXXXXX             ",
"      XXXXXXX      XXXXXXXXXXXXXXXXXXXXXXXXX.........................XXXXXXXXXXXXXXXXXX             ",
"      XXXXXXX      XXXXXXXXXXXXXXXXXXXXXXXXX.........................XXXXXXXXXXXXXXXXXX             ",
"      XXXXXXX      XXXXXXXXXXXXXXXXXXXXXXXXX.........................XXXXXXXXXXXXXXXXXX             ",
"      XXXXXXXXXXXXX            XXXXXX       XXXXXXXXXXXXXXXXXXXXXXXXXXXXXXX                   XXXXXX",
"XXXXXX      XXXXXXX            XXXXXX       XXXXXXXXXXXXXXXXXXXXXXXXXXXXXXX                   XXXXXX",
"XXXXXX      XXXXXXX            XXXXXX       XXXXXXXXXXXXXXXXXXXXXXXXXXXXXXX                   XXXXXX",
"XXXXXX      XXXXXXX            XXXXXX       XXXXXXXXXXXXXXXXXXXXXXXXXXXXXXX                   XXXXXX",
"XXXXXX      XXXXXXX            XXXXXX       XXXXXXXXXXXXXXXXXXXXXXXXXXXXXXX                   XXXXXX",
"XXXXXX      XXXXXXX            XXXXXX       XXXXXXXXXXXXXXXXXXXXXXXXXXXXXXX                   XXXXXX",
"XXXXXX      XXXXXXX            XXXXXX       XXXXXXXXXXXXXXXXXXXXXXXXXXXXXXX                   XXXXXX",
"            XXXXXXXXXXXXX      XXXXXX                                      XXXXXX      XXXXXXX      ",
"            XXXXXXXXXXXXX      XXXXXX                                      XXXXXX      XXXXXXX      ",
"            XXXXXXXXXXXXX      XXXXXX                                      XXXXXX      XXXXXXX      ",
"            XXXXXXXXXXXXX      XXXXXX                                      XXXXXX      XXXXXXX      ",
"            XXXXXXXXXXXXX      XXXXXX                                      XXXXXX      XXXXXXX      ",
"            XXXXXXXXXXXXX      XXXXXX                                      XXXXXX      XXXXXXX      "
};
