/* XPM */
static char *_25e7afc491e4a1db66d3f7401cff49b11vZkt0eCDRpUCcW[] = {
/* columns rows colors chars-per-pixel */
"100 100 3 1 ",
"  c #F6ACCD",
". c #FCC5DD",
"X c #F8D8E6",
/* pixels */
"      XXXXXX       XXXXXX                                            XXXXXX            XXXXXXX      ",
"      XXXXXX       XXXXXX                                            XXXXXX            XXXXXXX      ",
"      XXXXXX       XXXXXX                                            XXXXXX            XXXXXXX      ",
"      XXXXXX       XXXXXX                                            XXXXXX            XXXXXXX      ",
"      XXXXXX       XXXXXX                                            XXXXXX            XXXXXXX      ",
"      XXXXXX       XXXXXX                                            XXXXXX            XXXXXXX      ",
"      XXXXXX                   XXXXXXXXXXXXXXXXXXX                   ......XXXXXX             XXXXXX",
"      XXXXXX                   XXXXXXXXXXXXXXXXXXX                   ......XXXXXX             XXXXXX",
"      XXXXXX                   XXXXXXXXXXXXXXXXXXX                   ......XXXXXX             XXXXXX",
"      XXXXXX                   XXXXXXXXXXXXXXXXXXX                   ......XXXXXX             XXXXXX",
"      XXXXXX                   XXXXXXXXXXXXXXXXXXX                   ......XXXXXX             XXXXXX",
"      XXXXXX                   XXXXXXXXXXXXXXXXXXX                   ......XXXXXX             XXXXXX",
"                               XXXXXXXXXXXXXXXXXXX                   ......XXXXXX             XXXXXX",
"             XXXXXX      XXXXXX...................XXXXXX                   ......XXXXXX             ",
"             XXXXXX      XXXXXX...................XXXXXX                   ......XXXXXX             ",
"             XXXXXX      XXXXXX...................XXXXXX                   ......XXXXXX             ",
"             XXXXXX      XXXXXX...................XXXXXX                   ......XXXXXX             ",
"             XXXXXX      XXXXXX...................XXXXXX                   ......XXXXXX             ",
"             XXXXXX      XXXXXX...................XXXXXX                   ......XXXXXX             ",
"XXXXXX             XXXXXX...............................XXXXXX             ......XXXXXX       XXXXXX",
"XXXXXX             XXXXXX...............................XXXXXX             ......XXXXXX       XXXXXX",
"XXXXXX             XXXXXX...............................XXXXXX             ......XXXXXX       XXXXXX",
"XXXXXX             XXXXXX...............................XXXXXX             ......XXXXXX       XXXXXX",
"XXXXXX             XXXXXX...............................XXXXXX             ......XXXXXX       XXXXXX",
"XXXXXX             XXXXXX...............................XXXXXX             ......XXXXXX       XXXXXX",
"XXXXXX       XXXXXX............                   ......XXXXXXXXXXXXX      ......XXXXXXXXXXXXX      ",
"XXXXXX       XXXXXX............                   ......XXXXXXXXXXXXX      ......XXXXXXXXXXXXX      ",
"XXXXXX       XXXXXX............                   ......XXXXXXXXXXXXX      ......XXXXXXXXXXXXX      ",
"XXXXXX       XXXXXX............                   ......XXXXXXXXXXXXX      ......XXXXXXXXXXXXX      ",
"XXXXXX       XXXXXX............                   ......XXXXXXXXXXXXX      ......XXXXXXXXXXXXX      ",
"XXXXXX       XXXXXX............                   ......XXXXXXXXXXXXX      ......XXXXXXXXXXXXX      ",
"      XXXXXXXXXXXXX......             XXXXXXXXXXXX            XXXXXXX      ............XXXXXXX      ",
"      XXXXXXXXXXXXX......             XXXXXXXXXXXX            XXXXXXX      ............XXXXXXX      ",
"      XXXXXXXXXXXXX......             XXXXXXXXXXXX            XXXXXXX      ............XXXXXXX      ",
"      XXXXXXXXXXXXX......             XXXXXXXXXXXX            XXXXXXX      ............XXXXXXX      ",
"      XXXXXXXXXXXXX......             XXXXXXXXXXXX            XXXXXXX      ............XXXXXXX      ",
"      XXXXXXXXXXXXX......             XXXXXXXXXXXX            XXXXXXX      ............XXXXXXX      ",
"             XXXXXX......             XXXXXXXXXXXX            XXXXXXX      ............XXXXXXX      ",
"             XXXXXX......             XXXXXX      XXXXXX      XXXXXXX            ......XXXXXXX      ",
"             XXXXXX......             XXXXXX      XXXXXX      XXXXXXX            ......XXXXXXX      ",
"             XXXXXX......             XXXXXX      XXXXXX      XXXXXXX            ......XXXXXXX      ",
"             XXXXXX......             XXXXXX      XXXXXX      XXXXXXX            ......XXXXXXX      ",
"             XXXXXX......             XXXXXX      XXXXXX      XXXXXXX            ......XXXXXXX      ",
"             XXXXXX......             XXXXXX      XXXXXX      XXXXXXX            ......XXXXXXX      ",
"XXXXXXXXXXXXXXXXXXX......      XXXXXXX                        XXXXXXX            ......XXXXXXX      ",
"XXXXXXXXXXXXXXXXXXX......      XXXXXXX                        XXXXXXX            ......XXXXXXX      ",
"XXXXXXXXXXXXXXXXXXX......      XXXXXXX                        XXXXXXX            ......XXXXXXX      ",
"XXXXXXXXXXXXXXXXXXX......      XXXXXXX                        XXXXXXX            ......XXXXXXX      ",
"XXXXXXXXXXXXXXXXXXX......      XXXXXXX                        XXXXXXX            ......XXXXXXX      ",
"XXXXXXXXXXXXXXXXXXX......      XXXXXXX                        XXXXXXX            ......XXXXXXX      ",
"XXXXXX       XXXXXX......      XXXXXXX......            ......XXXXXXX            ......XXXXXXX      ",
"XXXXXX       XXXXXX......      XXXXXXX......            ......XXXXXXX            ......XXXXXXX      ",
"XXXXXX       XXXXXX......      XXXXXXX......            ......XXXXXXX            ......XXXXXXX      ",
"XXXXXX       XXXXXX......      XXXXXXX......            ......XXXXXXX            ......XXXXXXX      ",
"XXXXXX       XXXXXX......      XXXXXXX......            ......XXXXXXX            ......XXXXXXX      ",
"XXXXXX       XXXXXX......      XXXXXXX......            ......XXXXXXX            ......XXXXXXX      ",
"             XXXXXX......             XXXXXX            ......XXXXXXX      ......XXXXXX             ",
"             XXXXXX......             XXXXXX            ......XXXXXXX      ......XXXXXX             ",
"             XXXXXX......             XXXXXX            ......XXXXXXX      ......XXXXXX             ",
"             XXXXXX......             XXXXXX            ......XXXXXXX      ......XXXXXX             ",
"             XXXXXX......             XXXXXX            ......XXXXXXX      ......XXXXXX             ",
"             XXXXXX......             XXXXXX            ......XXXXXXX      ......XXXXXX             ",
"XXXXXX       XXXXXX......             XXXXXX............XXXXXXXXXXXXX      ......XXXXXX             ",
"XXXXXX       XXXXXX......             XXXXXX............XXXXXXX            ......XXXXXXXXXXXXXXXXXXX",
"XXXXXX       XXXXXX......             XXXXXX............XXXXXXX            ......XXXXXXXXXXXXXXXXXXX",
"XXXXXX       XXXXXX......             XXXXXX............XXXXXXX            ......XXXXXXXXXXXXXXXXXXX",
"XXXXXX       XXXXXX......             XXXXXX............XXXXXXX            ......XXXXXXXXXXXXXXXXXXX",
"XXXXXX       XXXXXX......             XXXXXX............XXXXXXX            ......XXXXXXXXXXXXXXXXXXX",
"XXXXXX       XXXXXX......             XXXXXX............XXXXXXX            ......XXXXXXXXXXXXXXXXXXX",
"XXXXXX       XXXXXX............             XXXXXXXXXXXX                   ......XXXXXX             ",
"XXXXXX       XXXXXX............             XXXXXXXXXXXX                   ......XXXXXX             ",
"XXXXXX       XXXXXX............             XXXXXXXXXXXX                   ......XXXXXX             ",
"XXXXXX       XXXXXX............             XXXXXXXXXXXX                   ......XXXXXX             ",
"XXXXXX       XXXXXX............             XXXXXXXXXXXX                   ......XXXXXX             ",
"XXXXXX       XXXXXX............             XXXXXXXXXXXX                   ......XXXXXX             ",
"      XXXXXXX      XXXXXX.............                               ......XXXXXXXXXXXX       XXXXXX",
"      XXXXXXX      XXXXXX.............                               ......XXXXXXXXXXXX       XXXXXX",
"      XXXXXXX      XXXXXX.............                               ......XXXXXXXXXXXX       XXXXXX",
"      XXXXXXX      XXXXXX.............                               ......XXXXXXXXXXXX       XXXXXX",
"      XXXXXXX      XXXXXX.............                               ......XXXXXXXXXXXX       XXXXXX",
"      XXXXXXX      XXXXXX.............                               ......XXXXXXXXXXXX       XXXXXX",
"      XXXXXXX      XXXXXXXXXXXX......................................XXXXXX            XXXXXXXXXXXXX",
"      XXXXXXX      XXXXXXXXXXXX......................................XXXXXX            XXXXXXXXXXXXX",
"      XXXXXXX      XXXXXXXXXXXX......................................XXXXXX            XXXXXXXXXXXXX",
"      XXXXXXX      XXXXXXXXXXXX......................................XXXXXX            XXXXXXXXXXXXX",
"      XXXXXXX      XXXXXXXXXXXX......................................XXXXXX            XXXXXXXXXXXXX",
"      XXXXXXX      XXXXXXXXXXXX......................................XXXXXX            XXXXXXXXXXXXX",
"             XXXXXX            XXXXXXXXXXXXXXXXXXXXXXXXXXXXXXXXXXXXXX            XXXXXXXXXXXXXXXXXXX",
"             XXXXXX            XXXXXXXXXXXXXXXXXXXXXXXXXXXXXXXXXXXXXX            XXXXXXX            ",
"             XXXXXX            XXXXXXXXXXXXXXXXXXXXXXXXXXXXXXXXXXXXXX            XXXXXXX            ",
"             XXXXXX            XXXXXXXXXXXXXXXXXXXXXXXXXXXXXXXXXXXXXX            XXXXXXX            ",
"             XXXXXX            XXXXXXXXXXXXXXXXXXXXXXXXXXXXXXXXXXXXXX            XXXXXXX            ",
"             XXXXXX            XXXXXXXXXXXXXXXXXXXXXXXXXXXXXXXXXXXXXX            XXXXXXX            ",
"             XXXXXX            XXXXXXXXXXXXXXXXXXXXXXXXXXXXXXXXXXXXXX            XXXXXXX            ",
"XXXXXX             XXXXXX                   XXXXXX                                      XXXXXX      ",
"XXXXXX             XXXXXX                   XXXXXX                                      XXXXXX      ",
"XXXXXX             XXXXXX                   XXXXXX                                      XXXXXX      ",
"XXXXXX             XXXXXX                   XXXXXX                                      XXXXXX      ",
"XXXXXX             XXXXXX                   XXXXXX                                      XXXXXX      ",
"XXXXXX             XXXXXX                   XXXXXX                                      XXXXXX      "
};
