/* XPM */
static char *d826f1ec0c4f4dea9c1dbac7742b5faaIJdIlYQCoP2zb8fW[] = {
/* columns rows colors chars-per-pixel */
"100 100 3 1 ",
"  c #F6ACCD",
". c #FCC5DD",
"X c #F8D8E6",
/* pixels */
"      XXXXXX                                      XXXXXX                   XXXXXX             XXXXXX",
"      XXXXXX                                      XXXXXX                   XXXXXX             XXXXXX",
"      XXXXXX                                      XXXXXX                   XXXXXX             XXXXXX",
"      XXXXXX                                      XXXXXX                   XXXXXX             XXXXXX",
"      XXXXXX                                      XXXXXX                   XXXXXX             XXXXXX",
"      XXXXXX                                      XXXXXX                   XXXXXX             XXXXXX",
"            XXXXXXX            XXXXXXXXXXXXXXXXXXXXXXXXXXXXXXXXXXXXXX            XXXXXX             ",
"            XXXXXXX            XXXXXXXXXXXXXXXXXXXXXXXXXXXXXXXXXXXXXX            XXXXXX             ",
"            XXXXXXX            XXXXXXXXXXXXXXXXXXXXXXXXXXXXXXXXXXXXXX            XXXXXX             ",
"            XXXXXXX            XXXXXXXXXXXXXXXXXXXXXXXXXXXXXXXXXXXXXX            XXXXXX             ",
"            XXXXXXX            XXXXXXXXXXXXXXXXXXXXXXXXXXXXXXXXXXXXXX            XXXXXX             ",
"            XXXXXXX            XXXXXXXXXXXXXXXXXXXXXXXXXXXXXXXXXXXXXX            XXXXXX             ",
"XXXXXXXXXXXXXXXXXXX            XXXXXXXXXXXXXXXXXXXXXXXXXXXXXXXXXXXXXX            XXXXXX             ",
"XXXXXXXXXXXXX            XXXXXX......................................XXXXXXXXXXXX      XXXXXXX      ",
"XXXXXXXXXXXXX            XXXXXX......................................XXXXXXXXXXXX      XXXXXXX      ",
"XXXXXXXXXXXXX            XXXXXX......................................XXXXXXXXXXXX      XXXXXXX      ",
"XXXXXXXXXXXXX            XXXXXX......................................XXXXXXXXXXXX      XXXXXXX      ",
"XXXXXXXXXXXXX            XXXXXX......................................XXXXXXXXXXXX      XXXXXXX      ",
"XXXXXXXXXXXXX            XXXXXX......................................XXXXXXXXXXXX      XXXXXXX      ",
"XXXXXX       XXXXXXXXXXXX......                               .............XXXXXX      XXXXXXX      ",
"XXXXXX       XXXXXXXXXXXX......                               .............XXXXXX      XXXXXXX      ",
"XXXXXX       XXXXXXXXXXXX......                               .............XXXXXX      XXXXXXX      ",
"XXXXXX       XXXXXXXXXXXX......                               .............XXXXXX      XXXXXXX      ",
"XXXXXX       XXXXXXXXXXXX......                               .............XXXXXX      XXXXXXX      ",
"XXXXXX       XXXXXXXXXXXX......                               .............XXXXXX      XXXXXXX      ",
"             XXXXXX......                   XXXXXXXXXXXX             ............XXXXXX       XXXXXX",
"             XXXXXX......                   XXXXXXXXXXXX             ............XXXXXX       XXXXXX",
"             XXXXXX......                   XXXXXXXXXXXX             ............XXXXXX       XXXXXX",
"             XXXXXX......                   XXXXXXXXXXXX             ............XXXXXX       XXXXXX",
"             XXXXXX......                   XXXXXXXXXXXX             ............XXXXXX       XXXXXX",
"             XXXXXX......                   XXXXXXXXXXXX             ............XXXXXX       XXXXXX",
"XXXXXXXXXXXXXXXXXXX......            XXXXXXX............XXXXXX             ......XXXXXX       XXXXXX",
"XXXXXXXXXXXXXXXXXXX......            XXXXXXX............XXXXXX             ......XXXXXX       XXXXXX",
"XXXXXXXXXXXXXXXXXXX......            XXXXXXX............XXXXXX             ......XXXXXX       XXXXXX",
"XXXXXXXXXXXXXXXXXXX......            XXXXXXX............XXXXXX             ......XXXXXX       XXXXXX",
"XXXXXXXXXXXXXXXXXXX......            XXXXXXX............XXXXXX             ......XXXXXX       XXXXXX",
"XXXXXXXXXXXXXXXXXXX......            XXXXXXX............XXXXXX             ......XXXXXX       XXXXXX",
"             XXXXXX......      XXXXXXXXXXXXX............XXXXXX             ......XXXXXX       XXXXXX",
"             XXXXXX......      XXXXXXX......            XXXXXX             ......XXXXXX             ",
"             XXXXXX......      XXXXXXX......            XXXXXX             ......XXXXXX             ",
"             XXXXXX......      XXXXXXX......            XXXXXX             ......XXXXXX             ",
"             XXXXXX......      XXXXXXX......            XXXXXX             ......XXXXXX             ",
"             XXXXXX......      XXXXXXX......            XXXXXX             ......XXXXXX             ",
"             XXXXXX......      XXXXXXX......            XXXXXX             ......XXXXXX             ",
"      XXXXXXX......            XXXXXXX......            ......XXXXXXX      ......XXXXXX       XXXXXX",
"      XXXXXXX......            XXXXXXX......            ......XXXXXXX      ......XXXXXX       XXXXXX",
"      XXXXXXX......            XXXXXXX......            ......XXXXXXX      ......XXXXXX       XXXXXX",
"      XXXXXXX......            XXXXXXX......            ......XXXXXXX      ......XXXXXX       XXXXXX",
"      XXXXXXX......            XXXXXXX......            ......XXXXXXX      ......XXXXXX       XXXXXX",
"      XXXXXXX......            XXXXXXX......            ......XXXXXXX      ......XXXXXX       XXXXXX",
"      XXXXXXX......            XXXXXXX                        XXXXXXX      ......XXXXXXXXXXXXXXXXXXX",
"      XXXXXXX......            XXXXXXX                        XXXXXXX      ......XXXXXXXXXXXXXXXXXXX",
"      XXXXXXX......            XXXXXXX                        XXXXXXX      ......XXXXXXXXXXXXXXXXXXX",
"      XXXXXXX......            XXXXXXX                        XXXXXXX      ......XXXXXXXXXXXXXXXXXXX",
"      XXXXXXX......            XXXXXXX                        XXXXXXX      ......XXXXXXXXXXXXXXXXXXX",
"      XXXXXXX......            XXXXXXX                        XXXXXXX      ......XXXXXXXXXXXXXXXXXXX",
"      XXXXXXX......            XXXXXXX      XXXXXX      XXXXXX             ......XXXXXX             ",
"      XXXXXXX......            XXXXXXX      XXXXXX      XXXXXX             ......XXXXXX             ",
"      XXXXXXX......            XXXXXXX      XXXXXX      XXXXXX             ......XXXXXX             ",
"      XXXXXXX......            XXXXXXX      XXXXXX      XXXXXX             ......XXXXXX             ",
"      XXXXXXX......            XXXXXXX      XXXXXX      XXXXXX             ......XXXXXX             ",
"      XXXXXXX......            XXXXXXX      XXXXXX      XXXXXX             ......XXXXXX             ",
"      XXXXXXX............      XXXXXXX            XXXXXXXXXXXX             ......XXXXXX             ",
"      XXXXXXX............      XXXXXXX            XXXXXXXXXXXX             ......XXXXXXXXXXXXX      ",
"      XXXXXXX............      XXXXXXX            XXXXXXXXXXXX             ......XXXXXXXXXXXXX      ",
"      XXXXXXX............      XXXXXXX            XXXXXXXXXXXX             ......XXXXXXXXXXXXX      ",
"      XXXXXXX............      XXXXXXX            XXXXXXXXXXXX             ......XXXXXXXXXXXXX      ",
"      XXXXXXX............      XXXXXXX            XXXXXXXXXXXX             ......XXXXXXXXXXXXX      ",
"      XXXXXXX............      XXXXXXX            XXXXXXXXXXXX             ......XXXXXXXXXXXXX      ",
"      XXXXXXXXXXXXX......      XXXXXXXXXXXXX......                   ............XXXXXX       XXXXXX",
"      XXXXXXXXXXXXX......      XXXXXXXXXXXXX......                   ............XXXXXX       XXXXXX",
"      XXXXXXXXXXXXX......      XXXXXXXXXXXXX......                   ............XXXXXX       XXXXXX",
"      XXXXXXXXXXXXX......      XXXXXXXXXXXXX......                   ............XXXXXX       XXXXXX",
"      XXXXXXXXXXXXX......      XXXXXXXXXXXXX......                   ............XXXXXX       XXXXXX",
"      XXXXXXXXXXXXX......      XXXXXXXXXXXXX......                   ............XXXXXX       XXXXXX",
"XXXXXX       XXXXXX......             XXXXXX...............................XXXXXX             XXXXXX",
"XXXXXX       XXXXXX......             XXXXXX...............................XXXXXX             XXXXXX",
"XXXXXX       XXXXXX......             XXXXXX...............................XXXXXX             XXXXXX",
"XXXXXX       XXXXXX......             XXXXXX...............................XXXXXX             XXXXXX",
"XXXXXX       XXXXXX......             XXXXXX...............................XXXXXX             XXXXXX",
"XXXXXX       XXXXXX......             XXXXXX...............................XXXXXX             XXXXXX",
"             XXXXXX......                   XXXXXX...................XXXXXX      XXXXXX             ",
"             XXXXXX......                   XXXXXX...................XXXXXX      XXXXXX             ",
"             XXXXXX......                   XXXXXX...................XXXXXX      XXXXXX             ",
"             XXXXXX......                   XXXXXX...................XXXXXX      XXXXXX             ",
"             XXXXXX......                   XXXXXX...................XXXXXX      XXXXXX             ",
"             XXXXXX......                   XXXXXX...................XXXXXX      XXXXXX             ",
"XXXXXX             XXXXXX......                   XXXXXXXXXXXXXXXXXXX                               ",
"XXXXXX             XXXXXX......                   XXXXXXXXXXXXXXXXXXX                   XXXXXX      ",
"XXXXXX             XXXXXX......                   XXXXXXXXXXXXXXXXXXX                   XXXXXX      ",
"XXXXXX             XXXXXX......                   XXXXXXXXXXXXXXXXXXX                   XXXXXX      ",
"XXXXXX             XXXXXX......                   XXXXXXXXXXXXXXXXXXX                   XXXXXX      ",
"XXXXXX             XXXXXX......                   XXXXXXXXXXXXXXXXXXX                   XXXXXX      ",
"XXXXXX             XXXXXX......                   XXXXXXXXXXXXXXXXXXX                   XXXXXX      ",
"      XXXXXXX            XXXXXX                                            XXXXXX       XXXXXX      ",
"      XXXXXXX            XXXXXX                                            XXXXXX       XXXXXX      ",
"      XXXXXXX            XXXXXX                                            XXXXXX       XXXXXX      ",
"      XXXXXXX            XXXXXX                                            XXXXXX       XXXXXX      ",
"      XXXXXXX            XXXXXX                                            XXXXXX       XXXXXX      ",
"      XXXXXXX            XXXXXX                                            XXXXXX       XXXXXX      "
};
